<?xml version="1.0" encoding="utf-8"?>
<!-- Generator: Adobe Illustrator 20.1.0, SVG Export Plug-In . SVG Version: 6.00 Build 0)  -->
<svg version="1.1" id="Layer_1" xmlns="http://www.w3.org/2000/svg" xmlns:xlink="http://www.w3.org/1999/xlink" x="0px" y="0px"
	 viewBox="0 0 52 52" enable-background="new 0 0 52 52" xml:space="preserve">
<path d="M26,0C11.6,0,0,11.6,0,26c0,14.4,11.6,26,26,26c14.4,0,26-11.6,26-26C52,11.6,40.4,0,26,0z M17.6,37.8l-4,0.6l0.6-4l0.6-4.1
	l3.5,3.5l3.5,3.5L17.6,37.8z M22.8,36l-6.9-6.9l11.6-11.6l6.9,6.9L22.8,36z M39.1,19.9l-3.4,3.5l-6.9-6.9l3.5-3.5L39.1,19.9z"/>
</svg>
