<?xml version="1.0" encoding="utf-8"?>
<!-- Generator: Adobe Illustrator 20.1.0, SVG Export Plug-In . SVG Version: 6.00 Build 0)  -->
<svg version="1.1" id="Layer_1" xmlns="http://www.w3.org/2000/svg" xmlns:xlink="http://www.w3.org/1999/xlink" x="0px" y="0px"
	 viewBox="0 0 52 52" enable-background="new 0 0 52 52" xml:space="preserve">
<g>
	<path d="M26.1,20.7c-2.9,0-5.2,2.3-5.2,5.2s2.3,5.2,5.2,5.2c2.9,0,5.2-2.3,5.2-5.2S29,20.7,26.1,20.7z M26.1,28.2
		c-1.2,0-2.2-1-2.2-2.2s1-2.2,2.2-2.2c1.2,0,2.2,1,2.2,2.2S27.4,28.2,26.1,28.2z"/>
	<path d="M26,0C11.6,0,0,11.6,0,26c0,14.4,11.6,26,26,26c14.4,0,26-11.6,26-26C52,11.6,40.4,0,26,0z M26,33.5c-8.1,0-13.5-8-13.5-8
		s5-7,13.5-7c8.7,0,13.5,7,13.5,7S34.7,33.5,26,33.5z"/>
</g>
</svg>
